<mxfile host="app.diagrams.net" modified="2024-06-02T21:28:07.827Z" agent="Mozilla/5.0 (Windows NT 10.0; Win64; x64) AppleWebKit/537.36 (KHTML, like Gecko) Chrome/125.0.0.0 Safari/537.36" version="24.4.13" etag="JqBC9nnvegeng6vZgKdK" type="github">
  <diagram name="Page-1" id="9zHnlJ1bRfYJg95S1rtn">
    <mxGraphModel>
      <root>
        <mxCell id="0" />
        <mxCell id="1" parent="0" />
      </root>
    </mxGraphModel>
  </diagram>
</mxfile>
